<mxfile host="app.diagrams.net" modified="2021-11-17T05:35:29.629Z" agent="5.0 (Macintosh; Intel Mac OS X 10_14_0) AppleWebKit/537.36 (KHTML, like Gecko) Chrome/95.0.4638.69 Safari/537.36" etag="MzLlpKBFV-Da2CGrYhJU" version="15.7.4" type="github">
  <diagram id="emebUEdOPFBLxkUd0rVB" name="Page-1">
    <mxGraphModel dx="1773" dy="1758" grid="1" gridSize="10" guides="1" tooltips="1" connect="1" arrows="1" fold="1" page="1" pageScale="1" pageWidth="827" pageHeight="1169" math="0" shadow="0">
      <root>
        <mxCell id="0" />
        <mxCell id="1" parent="0" />
        <mxCell id="s50igRO9AmzsNzVpEuZ7-8" value="User" style="shape=umlActor;verticalLabelPosition=bottom;verticalAlign=top;html=1;outlineConnect=0;" parent="1" vertex="1">
          <mxGeometry x="-530" y="-1020" width="30" height="60" as="geometry" />
        </mxCell>
        <mxCell id="s50igRO9AmzsNzVpEuZ7-9" value="User" style="shape=umlActor;verticalLabelPosition=bottom;verticalAlign=top;html=1;outlineConnect=0;" parent="1" vertex="1">
          <mxGeometry x="-430" y="-1020" width="30" height="60" as="geometry" />
        </mxCell>
        <mxCell id="s50igRO9AmzsNzVpEuZ7-10" value="&lt;pre&gt;EHR&lt;/pre&gt;&lt;pre&gt;Ledger&lt;/pre&gt;" style="rounded=0;whiteSpace=wrap;html=1;" parent="1" vertex="1">
          <mxGeometry x="-500" y="-910" width="70" height="100" as="geometry" />
        </mxCell>
        <mxCell id="s50igRO9AmzsNzVpEuZ7-11" value="" style="endArrow=none;html=1;rounded=0;" parent="1" edge="1">
          <mxGeometry width="50" height="50" relative="1" as="geometry">
            <mxPoint x="-440" y="-910" as="sourcePoint" />
            <mxPoint x="-410" y="-940" as="targetPoint" />
          </mxGeometry>
        </mxCell>
        <mxCell id="s50igRO9AmzsNzVpEuZ7-12" value="" style="endArrow=none;html=1;rounded=0;exitX=0.25;exitY=0;exitDx=0;exitDy=0;" parent="1" source="s50igRO9AmzsNzVpEuZ7-10" edge="1">
          <mxGeometry width="50" height="50" relative="1" as="geometry">
            <mxPoint x="-500" y="-900" as="sourcePoint" />
            <mxPoint x="-510" y="-940" as="targetPoint" />
          </mxGeometry>
        </mxCell>
        <mxCell id="s50igRO9AmzsNzVpEuZ7-13" value="Hospital / Healthcare Institution" style="whiteSpace=wrap;html=1;rounded=0;" parent="1" vertex="1">
          <mxGeometry x="-525" y="-770" width="120" height="60" as="geometry" />
        </mxCell>
        <mxCell id="s50igRO9AmzsNzVpEuZ7-15" value="" style="endArrow=none;html=1;rounded=0;" parent="1" edge="1">
          <mxGeometry width="50" height="50" relative="1" as="geometry">
            <mxPoint x="-465" y="-770" as="sourcePoint" />
            <mxPoint x="-465.5" y="-810" as="targetPoint" />
          </mxGeometry>
        </mxCell>
        <mxCell id="s50igRO9AmzsNzVpEuZ7-16" value="User" style="shape=umlActor;verticalLabelPosition=bottom;verticalAlign=top;html=1;outlineConnect=0;" parent="1" vertex="1">
          <mxGeometry x="-480" y="-1020" width="30" height="60" as="geometry" />
        </mxCell>
        <mxCell id="s50igRO9AmzsNzVpEuZ7-18" value="" style="endArrow=none;html=1;rounded=0;" parent="1" edge="1">
          <mxGeometry width="50" height="50" relative="1" as="geometry">
            <mxPoint x="-465" y="-910" as="sourcePoint" />
            <mxPoint x="-465.5" y="-940" as="targetPoint" />
          </mxGeometry>
        </mxCell>
        <mxCell id="s50igRO9AmzsNzVpEuZ7-19" value="User" style="shape=umlActor;verticalLabelPosition=bottom;verticalAlign=top;html=1;outlineConnect=0;" parent="1" vertex="1">
          <mxGeometry x="-240" y="-1020" width="30" height="60" as="geometry" />
        </mxCell>
        <mxCell id="s50igRO9AmzsNzVpEuZ7-20" value="User" style="shape=umlActor;verticalLabelPosition=bottom;verticalAlign=top;html=1;outlineConnect=0;" parent="1" vertex="1">
          <mxGeometry x="-140" y="-1020" width="30" height="60" as="geometry" />
        </mxCell>
        <mxCell id="s50igRO9AmzsNzVpEuZ7-21" value="&lt;pre&gt;EHR&lt;/pre&gt;&lt;pre&gt;Ledger&lt;/pre&gt;" style="rounded=0;whiteSpace=wrap;html=1;" parent="1" vertex="1">
          <mxGeometry x="-210" y="-910" width="70" height="100" as="geometry" />
        </mxCell>
        <mxCell id="s50igRO9AmzsNzVpEuZ7-22" value="" style="endArrow=none;html=1;rounded=0;" parent="1" edge="1">
          <mxGeometry width="50" height="50" relative="1" as="geometry">
            <mxPoint x="-150" y="-910" as="sourcePoint" />
            <mxPoint x="-120" y="-940" as="targetPoint" />
          </mxGeometry>
        </mxCell>
        <mxCell id="s50igRO9AmzsNzVpEuZ7-23" value="" style="endArrow=none;html=1;rounded=0;exitX=0.25;exitY=0;exitDx=0;exitDy=0;" parent="1" source="s50igRO9AmzsNzVpEuZ7-21" edge="1">
          <mxGeometry width="50" height="50" relative="1" as="geometry">
            <mxPoint x="-210" y="-900" as="sourcePoint" />
            <mxPoint x="-220" y="-940" as="targetPoint" />
          </mxGeometry>
        </mxCell>
        <mxCell id="s50igRO9AmzsNzVpEuZ7-24" value="Hospital / Healthcare Institution" style="whiteSpace=wrap;html=1;rounded=0;" parent="1" vertex="1">
          <mxGeometry x="-235" y="-770" width="120" height="60" as="geometry" />
        </mxCell>
        <mxCell id="s50igRO9AmzsNzVpEuZ7-25" value="" style="endArrow=none;html=1;rounded=0;" parent="1" edge="1">
          <mxGeometry width="50" height="50" relative="1" as="geometry">
            <mxPoint x="-175" y="-770" as="sourcePoint" />
            <mxPoint x="-175.5" y="-810" as="targetPoint" />
          </mxGeometry>
        </mxCell>
        <mxCell id="s50igRO9AmzsNzVpEuZ7-26" value="User" style="shape=umlActor;verticalLabelPosition=bottom;verticalAlign=top;html=1;outlineConnect=0;" parent="1" vertex="1">
          <mxGeometry x="-190" y="-1020" width="30" height="60" as="geometry" />
        </mxCell>
        <mxCell id="s50igRO9AmzsNzVpEuZ7-27" value="" style="endArrow=none;html=1;rounded=0;" parent="1" edge="1">
          <mxGeometry width="50" height="50" relative="1" as="geometry">
            <mxPoint x="-175" y="-910" as="sourcePoint" />
            <mxPoint x="-175.5" y="-940" as="targetPoint" />
          </mxGeometry>
        </mxCell>
        <mxCell id="s50igRO9AmzsNzVpEuZ7-29" value="" style="endArrow=none;html=1;rounded=0;exitX=1;exitY=0.25;exitDx=0;exitDy=0;" parent="1" source="s50igRO9AmzsNzVpEuZ7-28" edge="1">
          <mxGeometry width="50" height="50" relative="1" as="geometry">
            <mxPoint x="-285" y="-690" as="sourcePoint" />
            <mxPoint x="-235" y="-740" as="targetPoint" />
          </mxGeometry>
        </mxCell>
        <mxCell id="s50igRO9AmzsNzVpEuZ7-30" value="" style="endArrow=none;html=1;rounded=0;exitX=0;exitY=0.25;exitDx=0;exitDy=0;entryX=1;entryY=0.5;entryDx=0;entryDy=0;" parent="1" source="s50igRO9AmzsNzVpEuZ7-28" edge="1" target="s50igRO9AmzsNzVpEuZ7-13">
          <mxGeometry width="50" height="50" relative="1" as="geometry">
            <mxPoint x="-365" y="-700" as="sourcePoint" />
            <mxPoint x="-400" y="-730" as="targetPoint" />
          </mxGeometry>
        </mxCell>
        <mxCell id="dro_I9ou7xb3F1d08GTw-1" value="Peers Organization" style="swimlane;" vertex="1" parent="1">
          <mxGeometry x="-560" y="-1060" width="190" height="360" as="geometry" />
        </mxCell>
        <mxCell id="dro_I9ou7xb3F1d08GTw-2" value="Peers Organization" style="swimlane;" vertex="1" parent="1">
          <mxGeometry x="-250" y="-1060" width="180" height="370" as="geometry" />
        </mxCell>
        <mxCell id="dro_I9ou7xb3F1d08GTw-4" value="Hospital Organization" style="swimlane;horizontal=0;" vertex="1" parent="1">
          <mxGeometry x="-620" y="-784" width="590" height="184" as="geometry" />
        </mxCell>
        <mxCell id="s50igRO9AmzsNzVpEuZ7-28" value="&lt;pre&gt;Model&lt;/pre&gt;&lt;pre&gt;Ledger&lt;/pre&gt;" style="rounded=0;whiteSpace=wrap;html=1;" parent="dro_I9ou7xb3F1d08GTw-4" vertex="1">
          <mxGeometry x="280" y="54" width="70" height="100" as="geometry" />
        </mxCell>
      </root>
    </mxGraphModel>
  </diagram>
</mxfile>
